<mxfile host="app.diagrams.net" modified="2024-03-20T09:15:46.321Z" agent="Mozilla/5.0 (Macintosh; Intel Mac OS X 10_15_7) AppleWebKit/537.36 (KHTML, like Gecko) Chrome/122.0.0.0 Safari/537.36" etag="Oub9utSRQjFaofRjsVIy" version="24.0.7" type="github" pages="3">
  <diagram name="第 1 页" id="bAKhaYZ9yYFrBrvJVS-z">
    <mxGraphModel dx="1194" dy="530" grid="1" gridSize="10" guides="1" tooltips="1" connect="1" arrows="1" fold="1" page="1" pageScale="1" pageWidth="850" pageHeight="1100" math="0" shadow="0">
      <root>
        <mxCell id="0" />
        <mxCell id="1" parent="0" />
        <mxCell id="wAlwaIA0Jyt0b-C5Zlj5-6" value="" style="edgeStyle=orthogonalEdgeStyle;rounded=0;orthogonalLoop=1;jettySize=auto;html=1;" parent="1" source="wAlwaIA0Jyt0b-C5Zlj5-3" target="wAlwaIA0Jyt0b-C5Zlj5-4" edge="1">
          <mxGeometry relative="1" as="geometry" />
        </mxCell>
        <mxCell id="wAlwaIA0Jyt0b-C5Zlj5-3" value="开始" style="rounded=1;whiteSpace=wrap;html=1;" parent="1" vertex="1">
          <mxGeometry x="308.5" y="40" width="120" height="60" as="geometry" />
        </mxCell>
        <mxCell id="wAlwaIA0Jyt0b-C5Zlj5-13" value="" style="edgeStyle=orthogonalEdgeStyle;rounded=0;orthogonalLoop=1;jettySize=auto;html=1;" parent="1" source="wAlwaIA0Jyt0b-C5Zlj5-4" target="wAlwaIA0Jyt0b-C5Zlj5-12" edge="1">
          <mxGeometry relative="1" as="geometry" />
        </mxCell>
        <mxCell id="wAlwaIA0Jyt0b-C5Zlj5-4" value="用户前端输入统一认证号和密码" style="rounded=1;whiteSpace=wrap;html=1;" parent="1" vertex="1">
          <mxGeometry x="308" y="150" width="120" height="60" as="geometry" />
        </mxCell>
        <mxCell id="wAlwaIA0Jyt0b-C5Zlj5-41" value="" style="edgeStyle=orthogonalEdgeStyle;rounded=0;orthogonalLoop=1;jettySize=auto;html=1;" parent="1" source="wAlwaIA0Jyt0b-C5Zlj5-5" target="wAlwaIA0Jyt0b-C5Zlj5-8" edge="1">
          <mxGeometry relative="1" as="geometry" />
        </mxCell>
        <mxCell id="wAlwaIA0Jyt0b-C5Zlj5-60" value="是" style="edgeLabel;html=1;align=center;verticalAlign=middle;resizable=0;points=[];" parent="wAlwaIA0Jyt0b-C5Zlj5-41" vertex="1" connectable="0">
          <mxGeometry x="0.037" relative="1" as="geometry">
            <mxPoint as="offset" />
          </mxGeometry>
        </mxCell>
        <mxCell id="wAlwaIA0Jyt0b-C5Zlj5-5" value="SpringSecurity校验认证号和密码" style="rounded=1;whiteSpace=wrap;html=1;" parent="1" vertex="1">
          <mxGeometry x="308.5" y="380" width="120" height="60" as="geometry" />
        </mxCell>
        <mxCell id="wAlwaIA0Jyt0b-C5Zlj5-40" value="" style="edgeStyle=orthogonalEdgeStyle;rounded=0;orthogonalLoop=1;jettySize=auto;html=1;" parent="1" source="wAlwaIA0Jyt0b-C5Zlj5-8" target="wAlwaIA0Jyt0b-C5Zlj5-15" edge="1">
          <mxGeometry relative="1" as="geometry" />
        </mxCell>
        <mxCell id="wAlwaIA0Jyt0b-C5Zlj5-54" style="edgeStyle=orthogonalEdgeStyle;rounded=0;orthogonalLoop=1;jettySize=auto;html=1;entryX=0;entryY=0.5;entryDx=0;entryDy=0;" parent="1" source="wAlwaIA0Jyt0b-C5Zlj5-8" target="wAlwaIA0Jyt0b-C5Zlj5-52" edge="1">
          <mxGeometry relative="1" as="geometry">
            <Array as="points">
              <mxPoint x="90" y="520" />
              <mxPoint x="90" y="1650" />
            </Array>
          </mxGeometry>
        </mxCell>
        <mxCell id="wAlwaIA0Jyt0b-C5Zlj5-55" value="否" style="edgeLabel;html=1;align=center;verticalAlign=middle;resizable=0;points=[];" parent="wAlwaIA0Jyt0b-C5Zlj5-54" vertex="1" connectable="0">
          <mxGeometry x="-0.6526" y="1" relative="1" as="geometry">
            <mxPoint as="offset" />
          </mxGeometry>
        </mxCell>
        <mxCell id="wAlwaIA0Jyt0b-C5Zlj5-8" value="认证通过？" style="rhombus;whiteSpace=wrap;html=1;" parent="1" vertex="1">
          <mxGeometry x="306.5" y="480" width="125" height="80" as="geometry" />
        </mxCell>
        <mxCell id="wAlwaIA0Jyt0b-C5Zlj5-14" value="" style="edgeStyle=orthogonalEdgeStyle;rounded=0;orthogonalLoop=1;jettySize=auto;html=1;" parent="1" source="wAlwaIA0Jyt0b-C5Zlj5-12" target="wAlwaIA0Jyt0b-C5Zlj5-5" edge="1">
          <mxGeometry relative="1" as="geometry" />
        </mxCell>
        <mxCell id="wAlwaIA0Jyt0b-C5Zlj5-61" value="是" style="edgeLabel;html=1;align=center;verticalAlign=middle;resizable=0;points=[];" parent="wAlwaIA0Jyt0b-C5Zlj5-14" vertex="1" connectable="0">
          <mxGeometry x="-0.3333" y="1" relative="1" as="geometry">
            <mxPoint as="offset" />
          </mxGeometry>
        </mxCell>
        <mxCell id="wAlwaIA0Jyt0b-C5Zlj5-56" style="edgeStyle=orthogonalEdgeStyle;rounded=0;orthogonalLoop=1;jettySize=auto;html=1;entryX=0;entryY=0.5;entryDx=0;entryDy=0;" parent="1" source="wAlwaIA0Jyt0b-C5Zlj5-12" target="wAlwaIA0Jyt0b-C5Zlj5-52" edge="1">
          <mxGeometry relative="1" as="geometry">
            <Array as="points">
              <mxPoint x="40" y="300" />
              <mxPoint x="40" y="1650" />
            </Array>
          </mxGeometry>
        </mxCell>
        <mxCell id="wAlwaIA0Jyt0b-C5Zlj5-59" value="否" style="edgeLabel;html=1;align=center;verticalAlign=middle;resizable=0;points=[];" parent="wAlwaIA0Jyt0b-C5Zlj5-56" vertex="1" connectable="0">
          <mxGeometry x="-0.8244" y="-2" relative="1" as="geometry">
            <mxPoint as="offset" />
          </mxGeometry>
        </mxCell>
        <mxCell id="wAlwaIA0Jyt0b-C5Zlj5-12" value="账号和密码前置校验:&lt;div&gt;账号和密码是否为空？&lt;/div&gt;&lt;div&gt;账号和密码长度是否符合要求？&lt;/div&gt;&lt;div&gt;登录用户是否在黑名单内？&lt;/div&gt;" style="rhombus;whiteSpace=wrap;html=1;" parent="1" vertex="1">
          <mxGeometry x="304.5" y="260" width="127" height="80" as="geometry" />
        </mxCell>
        <mxCell id="wAlwaIA0Jyt0b-C5Zlj5-42" value="" style="edgeStyle=orthogonalEdgeStyle;rounded=0;orthogonalLoop=1;jettySize=auto;html=1;" parent="1" source="wAlwaIA0Jyt0b-C5Zlj5-15" target="wAlwaIA0Jyt0b-C5Zlj5-16" edge="1">
          <mxGeometry relative="1" as="geometry" />
        </mxCell>
        <mxCell id="wAlwaIA0Jyt0b-C5Zlj5-15" value="从已认证的Authentication中获取用户信息" style="rounded=1;whiteSpace=wrap;html=1;" parent="1" vertex="1">
          <mxGeometry x="309" y="620" width="120" height="60" as="geometry" />
        </mxCell>
        <mxCell id="wAlwaIA0Jyt0b-C5Zlj5-39" value="" style="edgeStyle=orthogonalEdgeStyle;rounded=0;orthogonalLoop=1;jettySize=auto;html=1;" parent="1" source="wAlwaIA0Jyt0b-C5Zlj5-16" target="wAlwaIA0Jyt0b-C5Zlj5-17" edge="1">
          <mxGeometry relative="1" as="geometry" />
        </mxCell>
        <mxCell id="wAlwaIA0Jyt0b-C5Zlj5-16" value="获取客户端信息" style="rounded=1;whiteSpace=wrap;html=1;" parent="1" vertex="1">
          <mxGeometry x="309" y="720" width="120" height="60" as="geometry" />
        </mxCell>
        <mxCell id="wAlwaIA0Jyt0b-C5Zlj5-37" value="" style="edgeStyle=orthogonalEdgeStyle;rounded=0;orthogonalLoop=1;jettySize=auto;html=1;" parent="1" source="wAlwaIA0Jyt0b-C5Zlj5-17" target="wAlwaIA0Jyt0b-C5Zlj5-18" edge="1">
          <mxGeometry relative="1" as="geometry" />
        </mxCell>
        <mxCell id="wAlwaIA0Jyt0b-C5Zlj5-17" value="序列化需要缓存到redis中的键" style="rounded=1;whiteSpace=wrap;html=1;" parent="1" vertex="1">
          <mxGeometry x="309" y="820" width="120" height="60" as="geometry" />
        </mxCell>
        <mxCell id="wAlwaIA0Jyt0b-C5Zlj5-38" value="" style="edgeStyle=orthogonalEdgeStyle;rounded=0;orthogonalLoop=1;jettySize=auto;html=1;" parent="1" source="wAlwaIA0Jyt0b-C5Zlj5-18" target="wAlwaIA0Jyt0b-C5Zlj5-20" edge="1">
          <mxGeometry relative="1" as="geometry" />
        </mxCell>
        <mxCell id="wAlwaIA0Jyt0b-C5Zlj5-18" value="从客户端表中获取给token设定的过期时间的数值" style="rounded=1;whiteSpace=wrap;html=1;" parent="1" vertex="1">
          <mxGeometry x="309" y="920" width="120" height="60" as="geometry" />
        </mxCell>
        <mxCell id="wAlwaIA0Jyt0b-C5Zlj5-30" style="edgeStyle=orthogonalEdgeStyle;rounded=0;orthogonalLoop=1;jettySize=auto;html=1;entryX=0.5;entryY=0;entryDx=0;entryDy=0;" parent="1" source="wAlwaIA0Jyt0b-C5Zlj5-20" target="wAlwaIA0Jyt0b-C5Zlj5-27" edge="1">
          <mxGeometry relative="1" as="geometry" />
        </mxCell>
        <mxCell id="wAlwaIA0Jyt0b-C5Zlj5-20" value="判断redis中是否已经存在该键?" style="rhombus;whiteSpace=wrap;html=1;" parent="1" vertex="1">
          <mxGeometry x="287" y="1020" width="164" height="80" as="geometry" />
        </mxCell>
        <mxCell id="wAlwaIA0Jyt0b-C5Zlj5-48" style="edgeStyle=orthogonalEdgeStyle;rounded=0;orthogonalLoop=1;jettySize=auto;html=1;entryX=0.5;entryY=0;entryDx=0;entryDy=0;" parent="1" source="wAlwaIA0Jyt0b-C5Zlj5-21" target="wAlwaIA0Jyt0b-C5Zlj5-47" edge="1">
          <mxGeometry relative="1" as="geometry">
            <Array as="points">
              <mxPoint x="200" y="1250" />
              <mxPoint x="450" y="1250" />
            </Array>
          </mxGeometry>
        </mxCell>
        <mxCell id="wAlwaIA0Jyt0b-C5Zlj5-21" value="更新redis中缓存的值" style="rounded=1;whiteSpace=wrap;html=1;" parent="1" vertex="1">
          <mxGeometry x="140" y="1130" width="120" height="60" as="geometry" />
        </mxCell>
        <mxCell id="wAlwaIA0Jyt0b-C5Zlj5-23" style="edgeStyle=orthogonalEdgeStyle;rounded=0;orthogonalLoop=1;jettySize=auto;html=1;entryX=0.45;entryY=-0.05;entryDx=0;entryDy=0;entryPerimeter=0;" parent="1" source="wAlwaIA0Jyt0b-C5Zlj5-20" target="wAlwaIA0Jyt0b-C5Zlj5-21" edge="1">
          <mxGeometry relative="1" as="geometry" />
        </mxCell>
        <mxCell id="wAlwaIA0Jyt0b-C5Zlj5-26" value="否" style="edgeLabel;html=1;align=center;verticalAlign=middle;resizable=0;points=[];" parent="wAlwaIA0Jyt0b-C5Zlj5-23" vertex="1" connectable="0">
          <mxGeometry x="0.3974" relative="1" as="geometry">
            <mxPoint as="offset" />
          </mxGeometry>
        </mxCell>
        <mxCell id="wAlwaIA0Jyt0b-C5Zlj5-33" style="edgeStyle=orthogonalEdgeStyle;rounded=0;orthogonalLoop=1;jettySize=auto;html=1;entryX=0.5;entryY=0;entryDx=0;entryDy=0;" parent="1" source="wAlwaIA0Jyt0b-C5Zlj5-27" target="wAlwaIA0Jyt0b-C5Zlj5-31" edge="1">
          <mxGeometry relative="1" as="geometry" />
        </mxCell>
        <mxCell id="wAlwaIA0Jyt0b-C5Zlj5-35" value="是" style="edgeLabel;html=1;align=center;verticalAlign=middle;resizable=0;points=[];" parent="wAlwaIA0Jyt0b-C5Zlj5-33" vertex="1" connectable="0">
          <mxGeometry x="0.2733" y="-2" relative="1" as="geometry">
            <mxPoint y="1" as="offset" />
          </mxGeometry>
        </mxCell>
        <mxCell id="wAlwaIA0Jyt0b-C5Zlj5-46" style="edgeStyle=orthogonalEdgeStyle;rounded=0;orthogonalLoop=1;jettySize=auto;html=1;" parent="1" source="wAlwaIA0Jyt0b-C5Zlj5-27" target="wAlwaIA0Jyt0b-C5Zlj5-44" edge="1">
          <mxGeometry relative="1" as="geometry" />
        </mxCell>
        <mxCell id="wAlwaIA0Jyt0b-C5Zlj5-27" value="判断是否开启双token认证?" style="rhombus;whiteSpace=wrap;html=1;" parent="1" vertex="1">
          <mxGeometry x="680" y="1120" width="150" height="80" as="geometry" />
        </mxCell>
        <mxCell id="wAlwaIA0Jyt0b-C5Zlj5-49" style="edgeStyle=orthogonalEdgeStyle;rounded=0;orthogonalLoop=1;jettySize=auto;html=1;" parent="1" source="wAlwaIA0Jyt0b-C5Zlj5-31" target="wAlwaIA0Jyt0b-C5Zlj5-47" edge="1">
          <mxGeometry relative="1" as="geometry" />
        </mxCell>
        <mxCell id="wAlwaIA0Jyt0b-C5Zlj5-31" value="生成accessKey;&lt;div&gt;生成refresh2accessKey;&lt;/div&gt;&lt;div&gt;生成access2refreshKey;&lt;/div&gt;&lt;div&gt;生成refreshKey&lt;/div&gt;" style="rounded=1;whiteSpace=wrap;html=1;" parent="1" vertex="1">
          <mxGeometry x="490" y="1220" width="160" height="100" as="geometry" />
        </mxCell>
        <mxCell id="wAlwaIA0Jyt0b-C5Zlj5-51" style="edgeStyle=orthogonalEdgeStyle;rounded=0;orthogonalLoop=1;jettySize=auto;html=1;entryX=1;entryY=0.5;entryDx=0;entryDy=0;" parent="1" source="wAlwaIA0Jyt0b-C5Zlj5-44" target="wAlwaIA0Jyt0b-C5Zlj5-47" edge="1">
          <mxGeometry relative="1" as="geometry" />
        </mxCell>
        <mxCell id="wAlwaIA0Jyt0b-C5Zlj5-44" value=";&lt;div&gt;&lt;span style=&quot;background-color: initial;&quot;&gt;生成access2refreshKey;&lt;/span&gt;&lt;br&gt;&lt;/div&gt;&lt;div&gt;&lt;br&gt;&lt;/div&gt;" style="rounded=1;whiteSpace=wrap;html=1;" parent="1" vertex="1">
          <mxGeometry x="840" y="1220" width="160" height="100" as="geometry" />
        </mxCell>
        <mxCell id="wAlwaIA0Jyt0b-C5Zlj5-53" value="" style="edgeStyle=orthogonalEdgeStyle;rounded=0;orthogonalLoop=1;jettySize=auto;html=1;" parent="1" source="wAlwaIA0Jyt0b-C5Zlj5-47" target="wAlwaIA0Jyt0b-C5Zlj5-52" edge="1">
          <mxGeometry relative="1" as="geometry" />
        </mxCell>
        <mxCell id="wAlwaIA0Jyt0b-C5Zlj5-47" value="封装结果返回给前端" style="rounded=1;whiteSpace=wrap;html=1;" parent="1" vertex="1">
          <mxGeometry x="390" y="1490" width="120" height="60" as="geometry" />
        </mxCell>
        <mxCell id="wAlwaIA0Jyt0b-C5Zlj5-52" value="结束" style="rounded=1;whiteSpace=wrap;html=1;" parent="1" vertex="1">
          <mxGeometry x="390" y="1620" width="120" height="60" as="geometry" />
        </mxCell>
        <mxCell id="zLorQVqb1mLfKRnbYSm5-1" value="&lt;font style=&quot;font-size: 24px;&quot;&gt;登录&lt;/font&gt;" style="text;html=1;align=center;verticalAlign=middle;whiteSpace=wrap;rounded=0;" parent="1" vertex="1">
          <mxGeometry x="550" y="40" width="60" height="30" as="geometry" />
        </mxCell>
      </root>
    </mxGraphModel>
  </diagram>
  <diagram id="hOTNXJcKEKkkXQ0PjTAz" name="第 2 页">
    <mxGraphModel dx="1194" dy="1630" grid="1" gridSize="10" guides="1" tooltips="1" connect="1" arrows="1" fold="1" page="1" pageScale="1" pageWidth="850" pageHeight="1100" math="0" shadow="0">
      <root>
        <mxCell id="0" />
        <mxCell id="1" parent="0" />
        <mxCell id="2usKE3awnAioA-veXbNU-4" value="" style="edgeStyle=orthogonalEdgeStyle;rounded=0;orthogonalLoop=1;jettySize=auto;html=1;" parent="1" source="2usKE3awnAioA-veXbNU-1" target="2usKE3awnAioA-veXbNU-2" edge="1">
          <mxGeometry relative="1" as="geometry" />
        </mxCell>
        <mxCell id="2usKE3awnAioA-veXbNU-1" value="开始" style="rounded=1;whiteSpace=wrap;html=1;" parent="1" vertex="1">
          <mxGeometry x="360" y="50" width="120" height="60" as="geometry" />
        </mxCell>
        <mxCell id="2usKE3awnAioA-veXbNU-5" value="" style="edgeStyle=orthogonalEdgeStyle;rounded=0;orthogonalLoop=1;jettySize=auto;html=1;" parent="1" source="2usKE3awnAioA-veXbNU-2" target="2usKE3awnAioA-veXbNU-3" edge="1">
          <mxGeometry relative="1" as="geometry">
            <Array as="points">
              <mxPoint x="510" y="195" />
              <mxPoint x="510" y="195" />
            </Array>
          </mxGeometry>
        </mxCell>
        <mxCell id="2usKE3awnAioA-veXbNU-6" value="否" style="edgeLabel;html=1;align=center;verticalAlign=middle;resizable=0;points=[];" parent="2usKE3awnAioA-veXbNU-5" vertex="1" connectable="0">
          <mxGeometry x="-0.1333" y="2" relative="1" as="geometry">
            <mxPoint y="1" as="offset" />
          </mxGeometry>
        </mxCell>
        <mxCell id="2usKE3awnAioA-veXbNU-10" value="" style="edgeStyle=orthogonalEdgeStyle;rounded=0;orthogonalLoop=1;jettySize=auto;html=1;" parent="1" source="2usKE3awnAioA-veXbNU-2" target="2usKE3awnAioA-veXbNU-7" edge="1">
          <mxGeometry relative="1" as="geometry" />
        </mxCell>
        <mxCell id="2usKE3awnAioA-veXbNU-2" value="检查token和客户端是否有效?" style="rhombus;whiteSpace=wrap;html=1;" parent="1" vertex="1">
          <mxGeometry x="350" y="160" width="140" height="70" as="geometry" />
        </mxCell>
        <mxCell id="2usKE3awnAioA-veXbNU-3" value="结束" style="rounded=1;whiteSpace=wrap;html=1;" parent="1" vertex="1">
          <mxGeometry x="550" y="165" width="120" height="60" as="geometry" />
        </mxCell>
        <mxCell id="2usKE3awnAioA-veXbNU-11" value="" style="edgeStyle=orthogonalEdgeStyle;rounded=0;orthogonalLoop=1;jettySize=auto;html=1;" parent="1" source="2usKE3awnAioA-veXbNU-7" target="2usKE3awnAioA-veXbNU-9" edge="1">
          <mxGeometry relative="1" as="geometry" />
        </mxCell>
        <mxCell id="2usKE3awnAioA-veXbNU-7" value="根据rereshtoken找到userId,然后userId根据userid查询数据库" style="rounded=1;whiteSpace=wrap;html=1;" parent="1" vertex="1">
          <mxGeometry x="360" y="280" width="120" height="60" as="geometry" />
        </mxCell>
        <mxCell id="2usKE3awnAioA-veXbNU-13" value="" style="edgeStyle=orthogonalEdgeStyle;rounded=0;orthogonalLoop=1;jettySize=auto;html=1;" parent="1" source="2usKE3awnAioA-veXbNU-9" target="2usKE3awnAioA-veXbNU-12" edge="1">
          <mxGeometry relative="1" as="geometry" />
        </mxCell>
        <mxCell id="2usKE3awnAioA-veXbNU-18" value="" style="edgeStyle=orthogonalEdgeStyle;rounded=0;orthogonalLoop=1;jettySize=auto;html=1;" parent="1" source="2usKE3awnAioA-veXbNU-9" target="2usKE3awnAioA-veXbNU-15" edge="1">
          <mxGeometry relative="1" as="geometry" />
        </mxCell>
        <mxCell id="2usKE3awnAioA-veXbNU-9" value="用户信息为null?" style="rhombus;whiteSpace=wrap;html=1;" parent="1" vertex="1">
          <mxGeometry x="348.25" y="400" width="143.5" height="70" as="geometry" />
        </mxCell>
        <mxCell id="2usKE3awnAioA-veXbNU-12" value="结束" style="rounded=1;whiteSpace=wrap;html=1;" parent="1" vertex="1">
          <mxGeometry x="550" y="405" width="120" height="60" as="geometry" />
        </mxCell>
        <mxCell id="2usKE3awnAioA-veXbNU-17" value="" style="edgeStyle=orthogonalEdgeStyle;rounded=0;orthogonalLoop=1;jettySize=auto;html=1;" parent="1" source="2usKE3awnAioA-veXbNU-15" target="2usKE3awnAioA-veXbNU-16" edge="1">
          <mxGeometry relative="1" as="geometry" />
        </mxCell>
        <mxCell id="2usKE3awnAioA-veXbNU-21" value="" style="edgeStyle=orthogonalEdgeStyle;rounded=0;orthogonalLoop=1;jettySize=auto;html=1;" parent="1" source="2usKE3awnAioA-veXbNU-15" target="2usKE3awnAioA-veXbNU-19" edge="1">
          <mxGeometry relative="1" as="geometry" />
        </mxCell>
        <mxCell id="2usKE3awnAioA-veXbNU-15" value="根据refresh_token查找access_token是否为null?" style="rhombus;whiteSpace=wrap;html=1;" parent="1" vertex="1">
          <mxGeometry x="352.5" y="530" width="135" height="70" as="geometry" />
        </mxCell>
        <mxCell id="2usKE3awnAioA-veXbNU-16" value="结束" style="rounded=1;whiteSpace=wrap;html=1;" parent="1" vertex="1">
          <mxGeometry x="550" y="535" width="120" height="60" as="geometry" />
        </mxCell>
        <mxCell id="2usKE3awnAioA-veXbNU-22" value="" style="edgeStyle=orthogonalEdgeStyle;rounded=0;orthogonalLoop=1;jettySize=auto;html=1;" parent="1" source="2usKE3awnAioA-veXbNU-19" target="2usKE3awnAioA-veXbNU-20" edge="1">
          <mxGeometry relative="1" as="geometry" />
        </mxCell>
        <mxCell id="2usKE3awnAioA-veXbNU-19" value="根据client信息获取token有效时间，重新刷新redis缓存中的token过期时间" style="rounded=1;whiteSpace=wrap;html=1;" parent="1" vertex="1">
          <mxGeometry x="360" y="650" width="120" height="60" as="geometry" />
        </mxCell>
        <mxCell id="2usKE3awnAioA-veXbNU-20" value="结束" style="rounded=1;whiteSpace=wrap;html=1;" parent="1" vertex="1">
          <mxGeometry x="360" y="770" width="120" height="60" as="geometry" />
        </mxCell>
        <mxCell id="XxtxSXN0KBvcRB6AdDeT-1" value="&lt;font style=&quot;font-size: 36px;&quot;&gt;refresh刷新access_tokne过期时间&lt;/font&gt;" style="text;html=1;align=center;verticalAlign=middle;whiteSpace=wrap;rounded=0;" parent="1" vertex="1">
          <mxGeometry x="90" y="-70" width="660" height="70" as="geometry" />
        </mxCell>
      </root>
    </mxGraphModel>
  </diagram>
  <diagram id="dRO3qL2lfIUvLDHuITba" name="第 3 页">
    <mxGraphModel dx="1194" dy="530" grid="1" gridSize="10" guides="1" tooltips="1" connect="1" arrows="1" fold="1" page="1" pageScale="1" pageWidth="850" pageHeight="1100" math="0" shadow="0">
      <root>
        <mxCell id="0" />
        <mxCell id="1" parent="0" />
        <mxCell id="kBLH6j_pA6y0CLGvFakl-22" value="" style="edgeStyle=orthogonalEdgeStyle;rounded=0;orthogonalLoop=1;jettySize=auto;html=1;" edge="1" parent="1" source="kBLH6j_pA6y0CLGvFakl-1" target="kBLH6j_pA6y0CLGvFakl-2">
          <mxGeometry relative="1" as="geometry" />
        </mxCell>
        <mxCell id="kBLH6j_pA6y0CLGvFakl-1" value="开始" style="rounded=1;whiteSpace=wrap;html=1;" vertex="1" parent="1">
          <mxGeometry x="330" y="20" width="120" height="60" as="geometry" />
        </mxCell>
        <mxCell id="kBLH6j_pA6y0CLGvFakl-20" value="" style="edgeStyle=orthogonalEdgeStyle;rounded=0;orthogonalLoop=1;jettySize=auto;html=1;" edge="1" parent="1" source="kBLH6j_pA6y0CLGvFakl-2" target="kBLH6j_pA6y0CLGvFakl-3">
          <mxGeometry relative="1" as="geometry" />
        </mxCell>
        <mxCell id="kBLH6j_pA6y0CLGvFakl-2" value="用户输入统一认证号、密码、验证码" style="rounded=1;whiteSpace=wrap;html=1;" vertex="1" parent="1">
          <mxGeometry x="327.5" y="120" width="125" height="60" as="geometry" />
        </mxCell>
        <mxCell id="kBLH6j_pA6y0CLGvFakl-5" value="" style="edgeStyle=orthogonalEdgeStyle;rounded=0;orthogonalLoop=1;jettySize=auto;html=1;" edge="1" parent="1" source="kBLH6j_pA6y0CLGvFakl-3" target="kBLH6j_pA6y0CLGvFakl-4">
          <mxGeometry relative="1" as="geometry" />
        </mxCell>
        <mxCell id="kBLH6j_pA6y0CLGvFakl-9" value="是" style="edgeLabel;html=1;align=center;verticalAlign=middle;resizable=0;points=[];" vertex="1" connectable="0" parent="kBLH6j_pA6y0CLGvFakl-5">
          <mxGeometry x="0.1111" relative="1" as="geometry">
            <mxPoint x="-10" y="-20" as="offset" />
          </mxGeometry>
        </mxCell>
        <mxCell id="kBLH6j_pA6y0CLGvFakl-12" value="" style="edgeStyle=orthogonalEdgeStyle;rounded=0;orthogonalLoop=1;jettySize=auto;html=1;" edge="1" parent="1" source="kBLH6j_pA6y0CLGvFakl-3" target="kBLH6j_pA6y0CLGvFakl-6">
          <mxGeometry relative="1" as="geometry" />
        </mxCell>
        <mxCell id="kBLH6j_pA6y0CLGvFakl-3" value="用户是否已经注册过?&lt;div&gt;统一认证号、密码是否为null?&lt;/div&gt;&lt;div&gt;统一认证号、密码是否符合长度?&lt;/div&gt;" style="rhombus;whiteSpace=wrap;html=1;" vertex="1" parent="1">
          <mxGeometry x="317.5" y="240" width="145" height="80" as="geometry" />
        </mxCell>
        <mxCell id="kBLH6j_pA6y0CLGvFakl-4" value="结束" style="rounded=1;whiteSpace=wrap;html=1;" vertex="1" parent="1">
          <mxGeometry x="550" y="250" width="120" height="60" as="geometry" />
        </mxCell>
        <mxCell id="kBLH6j_pA6y0CLGvFakl-13" value="" style="edgeStyle=orthogonalEdgeStyle;rounded=0;orthogonalLoop=1;jettySize=auto;html=1;" edge="1" parent="1" source="kBLH6j_pA6y0CLGvFakl-6" target="kBLH6j_pA6y0CLGvFakl-7">
          <mxGeometry relative="1" as="geometry" />
        </mxCell>
        <mxCell id="kBLH6j_pA6y0CLGvFakl-6" value="通过dubbo上送地区号和网点远程调用人力资源管理系统的API得到该用户所用相关信息" style="rounded=1;whiteSpace=wrap;html=1;" vertex="1" parent="1">
          <mxGeometry x="330" y="380" width="120" height="60" as="geometry" />
        </mxCell>
        <mxCell id="kBLH6j_pA6y0CLGvFakl-10" value="" style="edgeStyle=orthogonalEdgeStyle;rounded=0;orthogonalLoop=1;jettySize=auto;html=1;" edge="1" parent="1" source="kBLH6j_pA6y0CLGvFakl-7" target="kBLH6j_pA6y0CLGvFakl-8">
          <mxGeometry relative="1" as="geometry" />
        </mxCell>
        <mxCell id="kBLH6j_pA6y0CLGvFakl-11" value="是" style="edgeLabel;html=1;align=center;verticalAlign=middle;resizable=0;points=[];" vertex="1" connectable="0" parent="kBLH6j_pA6y0CLGvFakl-10">
          <mxGeometry x="-0.0105" y="4" relative="1" as="geometry">
            <mxPoint y="-6" as="offset" />
          </mxGeometry>
        </mxCell>
        <mxCell id="kBLH6j_pA6y0CLGvFakl-17" value="" style="edgeStyle=orthogonalEdgeStyle;rounded=0;orthogonalLoop=1;jettySize=auto;html=1;" edge="1" parent="1" source="kBLH6j_pA6y0CLGvFakl-7" target="kBLH6j_pA6y0CLGvFakl-14">
          <mxGeometry relative="1" as="geometry" />
        </mxCell>
        <mxCell id="kBLH6j_pA6y0CLGvFakl-7" value="查询到的用户信息是否为null?" style="rhombus;whiteSpace=wrap;html=1;" vertex="1" parent="1">
          <mxGeometry x="325" y="490" width="130" height="80" as="geometry" />
        </mxCell>
        <mxCell id="kBLH6j_pA6y0CLGvFakl-8" value="结束" style="rounded=1;whiteSpace=wrap;html=1;" vertex="1" parent="1">
          <mxGeometry x="550" y="500" width="120" height="60" as="geometry" />
        </mxCell>
        <mxCell id="kBLH6j_pA6y0CLGvFakl-18" value="" style="edgeStyle=orthogonalEdgeStyle;rounded=0;orthogonalLoop=1;jettySize=auto;html=1;" edge="1" parent="1" source="kBLH6j_pA6y0CLGvFakl-14" target="kBLH6j_pA6y0CLGvFakl-15">
          <mxGeometry relative="1" as="geometry" />
        </mxCell>
        <mxCell id="kBLH6j_pA6y0CLGvFakl-14" value="封装数据并将数据插入数据库" style="rounded=1;whiteSpace=wrap;html=1;" vertex="1" parent="1">
          <mxGeometry x="330" y="630" width="120" height="60" as="geometry" />
        </mxCell>
        <mxCell id="kBLH6j_pA6y0CLGvFakl-19" value="" style="edgeStyle=orthogonalEdgeStyle;rounded=0;orthogonalLoop=1;jettySize=auto;html=1;" edge="1" parent="1" source="kBLH6j_pA6y0CLGvFakl-15" target="kBLH6j_pA6y0CLGvFakl-16">
          <mxGeometry relative="1" as="geometry" />
        </mxCell>
        <mxCell id="kBLH6j_pA6y0CLGvFakl-15" value="前端显示注册成功并跳转到登录页面" style="rounded=1;whiteSpace=wrap;html=1;" vertex="1" parent="1">
          <mxGeometry x="330" y="750" width="120" height="60" as="geometry" />
        </mxCell>
        <mxCell id="kBLH6j_pA6y0CLGvFakl-16" value="结束" style="rounded=1;whiteSpace=wrap;html=1;" vertex="1" parent="1">
          <mxGeometry x="330" y="870" width="120" height="60" as="geometry" />
        </mxCell>
      </root>
    </mxGraphModel>
  </diagram>
</mxfile>
